<svg xmlns="http://www.w3.org/2000/svg" width="235.151" height="59.885" viewBox="0 0 235.151 59.885"><path d="M31.915,70.921H44.544v-20L31.915,38.3Zm55.134-3.436L85.1,71h15.841l.676-1.221L114.5,46.516l-7.946-14.263Z" transform="translate(-31.915 -11.115)" fill="#f6c90e"/><path d="M67.465,11.439V43.529L35.051,11.115H31.918v1.529l0,5.675v7.527L44.544,38.473l8.646,8.646L68.157,62.083,77.074,71h3.02V11.439Zm84.523,56.046L126.8,21.984l-5.173-9.343-.587-1.308h-3.034l-.608,1.313-5.17,9.338-.634,1.147-.026.047,7.946,14.263.232.418,5.809,10.493,11.855,21.427L138.091,71h15.841Zm21.8-9.114V11.115H161.155V71h47.319V58.371ZM254.437,11.52V44.108a14.256,14.256,0,0,1-13.616,14.26c-.168.005-.337.008-.508.008s-.355,0-.531-.008a14.273,14.273,0,0,1-13.618-14.263V11.52H213.535V48.673a18.727,18.727,0,0,0,4.933,12.776,29.759,29.759,0,0,0,43.641.053,18.7,18.7,0,0,0,4.957-12.8V11.52Z" transform="translate(-31.915 -11.115)" fill="#303841"/></svg>